<svg xmlns="http://www.w3.org/2000/svg"  viewBox="0 0 40 40" width="48px" height="48px"><path fill="#8bb7f0" d="M30.926,2.647c0.038-0.008,0.092-0.065,0.093-0.1C31.025,2.035,31.023,1.524,31.023,1 c-0.494,0.112-0.959,0.212-1.421,0.325c-0.053,0.013-0.128,0.09-0.129,0.139c-0.01,0.485-0.006,0.969-0.006,1.492 C29.983,2.848,30.455,2.751,30.926,2.647z"/><path fill="#8bb7f0" d="M30.873,37.342c-0.297-0.071-0.596-0.13-0.896-0.191c-0.163-0.033-0.327-0.064-0.51-0.099 c0,0.513-0.003,0.99,0.004,1.468c0.001,0.05,0.051,0.135,0.092,0.145c0.477,0.116,0.956,0.221,1.46,0.335 c0-0.523,0.003-1.029-0.007-1.535C31.016,37.421,30.93,37.355,30.873,37.342z"/><path fill="#8bb7f0" d="M23.674,36.076c0,0.516,0,1.012,0,1.509v0.001c0.521,0.081,1.026,0.159,1.543,0.24v-0.001 c0-0.516,0-1.009,0-1.53C24.695,36.221,24.189,36.149,23.674,36.076C23.674,36.076,23.674,36.076,23.674,36.076z"/><path fill="#8bb7f0" d="M21.307,4.122c0.007-0.459,0.004-0.919,0.004-1.397c-0.547,0.059-1.061,0.114-1.574,0.169 c0,0.497,0,0.971,0,1.467c0.501-0.048,0.987-0.093,1.474-0.145C21.247,4.213,21.307,4.156,21.307,4.122z"/><path fill="#8bb7f0" d="M18.851,35.568c-0.354-0.034-0.709-0.058-1.075-0.087l0,0h-0.001c0,0.497,0,0.965,0,1.456 c0.52,0.043,1.029,0.085,1.565,0.13c0-0.333,0-0.645,0-0.958C19.34,35.618,19.34,35.615,18.851,35.568z"/><path fill="#8bb7f0" d="M29.462,34.75c0.009,0.049,0.025,0.092,0.051,0.126c0.096,0.126,0.381,0.11,0.585,0.149 c0.302,0.058,0.605,0.11,0.911,0.164c0-0.501,0-0.967,0-1.439c-0.511-0.085-1.008-0.168-1.542-0.255c0,0.14-0.001,0.268-0.001,0.392 s0,0.244,0.002,0.363C29.471,34.411,29.434,34.604,29.462,34.75z"/><path fill="#8bb7f0" d="M31.423,33.825c0,0.494,0,0.962,0,1.446v0.001c0.505,0.103,1.005,0.205,1.515,0.309V35.58 c0-0.498,0-0.976,0-1.477C32.428,34.009,31.932,33.918,31.423,33.825C31.423,33.824,31.423,33.825,31.423,33.825z"/><path fill="#8bb7f0" d="M31.416,4.362c0.524-0.11,1.018-0.214,1.52-0.32c-0.001-0.487-0.001-0.964-0.001-1.476 c-0.481,0.108-0.953,0.213-1.423,0.324c-0.038,0.009-0.092,0.062-0.093,0.096C31.413,3.439,31.415,3.892,31.416,4.362L31.416,4.362 C31.416,4.361,31.416,4.362,31.416,4.362z"/><path fill="#8bb7f0" d="M19.737,34.01c0,0.452,0,0.867,0,1.295v0.001c0.52,0.05,1.03,0.098,1.561,0.15 c0-0.457,0-0.877,0-1.311v-0.001C20.768,34.099,20.254,34.054,19.737,34.01L19.737,34.01z"/><path fill="#8bb7f0" d="M29.078,1.441c-0.349,0.07-0.684,0.137-1.019,0.207c-0.533,0.112-0.533,0.112-0.533,0.663 c0,0.332,0,0.663,0,1.014c0.541-0.102,1.044-0.196,1.551-0.291C29.078,2.482,29.078,1.968,29.078,1.441z"/><path fill="#8bb7f0" d="M27.532,38.137c0.001,0.043,0.051,0.116,0.09,0.124c0.48,0.103,0.963,0.198,1.457,0.297 c0-0.538,0-1.058,0-1.593c-0.511-0.095-1.015-0.188-1.551-0.288C27.527,37.196,27.525,37.667,27.532,38.137z"/><path fill="#8bb7f0" d="M27.147,3.29c0.011-0.477,0.007-0.954,0.007-1.457l0,0l0,0c-0.511,0.089-0.995,0.173-1.477,0.264 c-0.032,0.006-0.074,0.074-0.074,0.113c-0.005,0.469-0.003,0.939-0.003,1.436c0.495-0.08,0.952-0.15,1.405-0.232 C27.06,3.403,27.146,3.334,27.147,3.29z"/><path fill="#8bb7f0" d="M19.328,2.931c-0.534,0.045-1.042,0.089-1.551,0.133c0,0.492,0,0.96,0,1.451 c0.523-0.04,1.032-0.078,1.551-0.117C19.328,3.905,19.328,3.43,19.328,2.931z"/><path fill="#8bb7f0" d="M21.701,37.321c0.52,0.068,1.028,0.135,1.547,0.202c0-0.512,0-1.001,0-1.505 c-0.519-0.062-1.026-0.121-1.547-0.183C21.701,36.342,21.701,36.818,21.701,37.321z"/><path fill="#8bb7f0" d="M23.248,2.475c-0.526,0.069-1.038,0.137-1.542,0.204c0,0.506,0,0.987,0,1.486 c0.525-0.063,1.033-0.124,1.542-0.184C23.248,3.468,23.248,2.978,23.248,2.475z"/><path fill="#8bb7f0" d="M17.365,3.095c-0.521,0.029-1.027,0.057-1.552,0.086c0,0.495,0,0.967,0,1.451 c0.532-0.031,1.043-0.06,1.552-0.09C17.365,4.048,17.365,3.58,17.365,3.095z"/><path fill="#8bb7f0" d="M15.799,36.697c0.001,0.046,0.095,0.121,0.152,0.128c0.228,0.026,0.459,0.032,0.69,0.044 c0.242,0.012,0.483,0.024,0.727,0.036c0-0.492,0-0.959,0-1.449c-0.535-0.027-1.044-0.054-1.576-0.081 C15.792,35.835,15.787,36.266,15.799,36.697z"/><path fill="#8bb7f0" d="M11.877,36.714c0.522,0,1.032,0,1.552,0c0-0.463,0-0.93,0-1.419c-0.519,0-1.029,0-1.552,0 C11.877,35.753,11.877,36.214,11.877,36.714z"/><path fill="#8bb7f0" d="M13.845,36.763c0.533,0,1.042,0,1.55,0c0-0.467,0-0.928,0-1.421c-0.521,0-1.031,0-1.55,0 C13.845,35.797,13.845,36.258,13.845,36.763z"/><path fill="#8bb7f0" d="M13.429,3.288c-0.523,0-1.033,0-1.547,0c0,0.489,0,0.954,0,1.415c0.525,0,1.029,0,1.547,0 C13.429,4.209,13.429,3.748,13.429,3.288z"/><path fill="#8bb7f0" d="M11.452,3.282c-0.526,0-1.037,0-1.551,0c0,0.477,0,0.939,0,1.419c0.521,0,1.033,0,1.551,0 C11.452,4.232,11.452,3.767,11.452,3.282z"/><path fill="#8bb7f0" d="M29.486,6.503c0.524-0.088,1.026-0.171,1.532-0.255c0-0.485,0-0.945,0-1.442 c-0.53,0.098-1.038,0.193-1.532,0.285C29.486,5.575,29.486,6.026,29.486,6.503z"/><path fill="#8bb7f0" d="M31.426,6.178c0.516-0.097,1.017-0.191,1.51-0.283c0-0.51,0-0.987,0-1.476 c-0.511,0.105-1.012,0.208-1.51,0.311C31.426,5.219,31.426,5.687,31.426,6.178z"/><path fill="#8bb7f0" d="M27.536,6.796c0.53-0.078,1.035-0.154,1.537-0.228V6.567c0-0.476,0-0.933,0-1.407V5.159 c-0.523,0.085-1.027,0.168-1.537,0.251v0.001C27.536,5.874,27.536,6.319,27.536,6.796z"/><path fill="#8bb7f0" d="M29.071,33.431c-0.517-0.076-1.017-0.15-1.532-0.226v0.001c0,0.471,0,0.922,0,1.384v0.001 c0.511,0.083,1.011,0.164,1.532,0.249C29.071,34.352,29.071,33.893,29.071,33.431C29.071,33.431,29.071,33.431,29.071,33.431z"/><path fill="#8bb7f0" d="M27.539,36.326c0.513,0.094,1.016,0.187,1.537,0.282c0-0.478,0-0.938,0-1.409 c-0.515-0.086-1.018-0.17-1.537-0.257C27.539,35.414,27.539,35.865,27.539,36.326z"/><path fill="#8bb7f0" d="M29.079,3.393c-0.48,0.088-0.95,0.17-1.418,0.262c-0.049,0.009-0.127,0.071-0.128,0.11 c-0.009,0.423-0.006,0.846-0.006,1.295c0.537-0.09,1.041-0.174,1.551-0.26C29.079,4.322,29.079,3.862,29.079,3.393z"/><path fill="#8bb7f0" d="M20.861,32.471c-0.045-0.004-0.088-0.014-0.133-0.017c-0.33-0.023-0.66-0.045-0.997-0.069 c0,0.446,0,0.855,0,1.294c0.534,0.045,1.048,0.088,1.554,0.13c0.014-0.041,0.023-0.055,0.023-0.069 c0.002-0.254,0.003-0.507,0.004-0.761C21.313,32.514,21.312,32.514,20.861,32.471z"/><path fill="#8bb7f0" d="M5.56,8.067C5.039,8.038,4.53,8.01,4.012,7.981c0,0.442,0,0.856,0,1.291 C4.534,9.301,5.044,9.327,5.56,9.355C5.56,8.912,5.56,8.497,5.56,8.067z"/><path fill="#8bb7f0" d="M4.011,32.354c0,0.434,0,0.849,0,1.294c0.527-0.036,1.035-0.072,1.551-0.107V33.54 c0-0.436,0-0.849,0-1.284v-0.001C5.04,32.289,4.531,32.321,4.011,32.354C4.011,32.353,4.011,32.354,4.011,32.354z"/><path fill="#8bb7f0" d="M4.121,12.526c0.474,0.007,0.948,0.004,1.435,0.004c0-0.388,0-0.807,0-1.261 c-0.521,0-1.025,0-1.556,0c0,0.373-0.003,0.767,0.005,1.16C4.006,12.463,4.081,12.525,4.121,12.526z"/><path fill="#8bb7f0" d="M5.559,12.884c-0.522,0-1.028,0-1.547,0c0,0.402,0,0.818,0,1.28c0.525,0,1.029,0,1.547,0 C5.559,13.754,5.559,13.333,5.559,12.884z"/><path fill="#8bb7f0" d="M4.013,32.023c0.524-0.032,1.032-0.063,1.551-0.094c0-0.432,0-0.84,0-1.285 c-0.531,0.03-1.041,0.059-1.551,0.087C4.013,31.174,4.013,31.59,4.013,32.023z"/><path fill="#8bb7f0" d="M5.564,16.118c-0.53,0-1.033,0-1.548,0c0,0.422,0,0.842,0,1.28c0.525,0,1.035,0,1.548,0 C5.564,16.97,5.564,16.562,5.564,16.118z"/><path fill="#8bb7f0" d="M4.017,23.866c0.526,0,1.035,0,1.549,0c0-0.437,0-0.838,0-1.253c-0.531,0-1.041,0-1.549,0 C4.017,23.052,4.017,23.473,4.017,23.866z"/><path fill="#8bb7f0" d="M4.011,25.489c0.523,0,1.033,0,1.549,0c0-0.446,0-0.86,0-1.261c-0.523,0-1.032,0-1.549,0 C4.011,24.672,4.011,25.087,4.011,25.489z"/><path fill="#8bb7f0" d="M11.882,7.885c0.529,0,1.038,0,1.552,0c0-0.426,0-0.829,0-1.246c-0.532,0-1.043,0-1.552,0 C11.882,7.072,11.882,7.484,11.882,7.885z"/><path fill="#8bb7f0" d="M11.455,6.636c-0.526,0-1.036,0-1.554,0c0,0.42,0,0.829,0,1.255c0.52,0,1.031,0,1.554,0 C11.455,7.481,11.455,7.073,11.455,6.636z"/><path fill="#8bb7f0" d="M9.905,15.846c0.523,0,1.033,0,1.547,0c0-0.425,0-0.836,0-1.247c-0.526,0-1.036,0-1.547,0 C9.905,15.022,9.905,15.429,9.905,15.846z"/><path fill="#8bb7f0" d="M11.456,24.153c-0.522,0-1.033,0-1.554,0c0,0.426,0,0.834,0,1.248c0.534,0,1.044,0,1.554,0 C11.456,24.971,11.456,24.563,11.456,24.153z"/><path fill="#8bb7f0" d="M7.931,19.029c0.523,0,1.034,0,1.555,0c0-0.417,0-0.827,0-1.256c-0.528,0-1.038,0-1.555,0 C7.931,18.195,7.931,18.603,7.931,19.029z"/><path fill="#8bb7f0" d="M9.91,19.029c0.528,0,1.038,0,1.547,0c0-0.424,0-0.832,0-1.247c-0.524,0-1.034,0-1.547,0 C9.91,18.208,9.91,18.62,9.91,19.029z"/><path fill="#8bb7f0" d="M7.513,16.156c-0.519,0-1.029,0-1.542,0c0,0.418,0,0.827,0,1.257c0.52,0,1.03,0,1.542,0 C7.513,16.996,7.513,16.587,7.513,16.156z"/><path fill="#8bb7f0" d="M9.482,20.976c-0.529,0-1.039,0-1.555,0c0,0.425,0,0.834,0,1.252c0.52,0,1.032,0,1.555,0 C9.482,21.806,9.482,21.398,9.482,20.976z"/><path fill="#8bb7f0" d="M9.91,22.217c0.529,0,1.038,0,1.552,0c0-0.419,0-0.821,0-1.246c-0.531,0-1.042,0-1.552,0 C9.91,21.398,9.91,21.81,9.91,22.217z"/><path fill="#8bb7f0" d="M5.972,23.84c0.52,0,1.029,0,1.544,0c0-0.428,0-0.837,0-1.249c-0.531,0-1.038,0-1.544,0 C5.972,23.026,5.972,23.433,5.972,23.84z"/><path fill="#8bb7f0" d="M7.511,20.638c0-0.427,0-0.841,0-1.261c-0.519,0-1.027,0-1.535,0c0,0.429,0,0.842,0,1.261 C6.497,20.638,7,20.638,7.511,20.638z"/><path fill="#8bb7f0" d="M5.971,25.444c0.52,0,1.029,0,1.54,0c0-0.438,0-0.845,0-1.243c-0.521,0-1.029,0-1.54,0 C5.971,24.637,5.971,25.045,5.971,25.444z"/><path fill="#8bb7f0" d="M5.971,33.519c0.521-0.024,1.03-0.048,1.539-0.072c0-0.436,0-0.844,0-1.279 c-0.521,0.023-1.03,0.046-1.539,0.069C5.971,32.678,5.971,33.087,5.971,33.519z"/><path fill="#8bb7f0" d="M7.936,30.2c0.528,0,1.038,0,1.551,0c0-0.437,0-0.838,0-1.241c-0.534,0-1.044,0-1.551,0 C7.936,29.399,7.936,29.812,7.936,30.2z"/><path fill="#8bb7f0" d="M7.505,8.128c-0.519,0-1.021,0-1.535,0c0,0.396,0,0.804,0,1.265c0.524,0,1.032,0,1.535,0 C7.505,8.988,7.505,8.574,7.505,8.128z"/><path fill="#8bb7f0" d="M7.929,27.01c0.534,0,1.043,0,1.553,0c0-0.436,0-0.843,0-1.244c-0.523,0-1.033,0-1.553,0 C7.929,26.196,7.929,26.603,7.929,27.01z"/><path fill="#8bb7f0" d="M5.974,28.652c0.522,0,1.03,0,1.537,0c0-0.446,0-0.854,0-1.251c-0.52,0-1.028,0-1.537,0 C5.974,27.849,5.974,28.263,5.974,28.652z"/><path fill="#8bb7f0" d="M13.427,32.111c-0.525,0-1.035,0-1.551,0c0,0.42,0,0.828,0,1.252c0.538,0,1.047,0,1.551,0 C13.427,32.94,13.427,32.533,13.427,32.111z"/><path fill="#8bb7f0" d="M9.907,33.361c0.525,0,1.036,0,1.551,0c0-0.425,0-0.833,0-1.247c-0.52,0-1.029,0-1.551,0 C9.907,32.554,9.907,32.96,9.907,33.361z"/><path fill="#8bb7f0" d="M5.97,30.267c0.516,0,1.019,0,1.54,0c0-0.458,0-0.865,0-1.252c-0.52,0-1.029,0-1.54,0 C5.97,29.462,5.97,29.869,5.97,30.267z"/><path fill="#8bb7f0" d="M9.486,11.392c-0.52,0-1.03,0-1.552,0c0,0.417,0,0.824,0,1.254c0.525,0,1.034,0,1.552,0 C9.486,12.234,9.486,11.826,9.486,11.392z"/><path fill="#8bb7f0" d="M7.508,9.736c-0.522,0-1.029,0-1.54,0c0,0.41,0,0.81,0,1.256c0.525,0,1.028,0,1.54,0 C7.508,10.59,7.508,10.179,7.508,9.736z"/><path fill="#8bb7f0" d="M5.977,14.544c0,0.427,0,0.841,0,1.269c0.516,0,1.014,0,1.528,0c0-0.425,0-0.837,0-1.269 C6.983,14.544,6.48,14.544,5.977,14.544z"/><path fill="#8bb7f0" d="M7.928,23.813c0.525,0,1.04,0,1.561,0c0-0.426,0-0.828,0-1.24c-0.532,0-1.043,0-1.561,0 C7.928,22.999,7.928,23.406,7.928,23.813z"/><path fill="#8bb7f0" d="M9.486,8.199c-0.516,0-1.027,0-1.552,0c0,0.406,0,0.819,0,1.256c0.525,0,1.033,0,1.552,0 C9.486,9.046,9.486,8.639,9.486,8.199z"/><path fill="#8bb7f0" d="M5.979,25.792c0,0.456,0,0.869,0,1.262c0.522,0,1.024,0,1.531,0c0-0.445,0-0.858,0-1.262 C6.992,25.792,6.49,25.792,5.979,25.792z"/><path fill="#8bb7f0" d="M7.929,33.393c0.532,0,1.042,0,1.553,0c0-0.441,0-0.848,0-1.241c-0.523,0-1.033,0-1.553,0 C7.929,32.588,7.929,32.995,7.929,33.393z"/><path fill="#8bb7f0" d="M7.936,34.994c0.529,0,1.038,0,1.553,0c0-0.441,0-0.844,0-1.248c-0.53,0-1.041,0-1.553,0 C7.936,34.193,7.936,34.607,7.936,34.994z"/><path fill="#8bb7f0" d="M7.929,31.798c0.527,0,1.042,0,1.551,0c0-0.442,0-0.849,0-1.244c-0.525,0-1.034,0-1.551,0 C7.929,30.993,7.929,31.4,7.929,31.798z"/><path fill="#8bb7f0" d="M9.904,14.254c0.522,0,1.032,0,1.553,0c0-0.41,0-0.818,0-1.251c-0.529,0-1.038,0-1.553,0 C9.904,13.422,9.904,13.828,9.904,14.254z"/><path fill="#8bb7f0" d="M7.937,14.242c0.523,0,1.027,0,1.543,0c0-0.427,0-0.833,0-1.258c-0.525,0-1.035,0-1.543,0 C7.937,13.404,7.937,13.817,7.937,14.242z"/><path fill="#8bb7f0" d="M9.905,20.62c0.524,0,1.033,0,1.552,0c0-0.418,0-0.824,0-1.245c-0.52,0-1.029,0-1.552,0 C9.905,19.802,9.905,20.208,9.905,20.62z"/><path fill="#8bb7f0" d="M13.427,34.954c0-0.423,0-0.83,0-1.248c-0.52,0-1.024,0-1.547,0c0,0.42,0,0.827,0,1.248 C12.405,34.954,12.915,34.954,13.427,34.954z"/><path fill="#8bb7f0" d="M13.424,5.055c-0.529,0-1.04,0-1.55,0c0,0.422,0,0.824,0,1.231c0.537,0,1.048,0,1.55,0 C13.424,5.857,13.424,5.45,13.424,5.055z"/><path fill="#8bb7f0" d="M9.481,16.178c-0.525,0-1.034,0-1.551,0c0,0.423,0,0.83,0,1.252c0.52,0,1.031,0,1.551,0 C9.481,17.01,9.481,16.597,9.481,16.178z"/><path fill="#8bb7f0" d="M11.454,25.747c-0.52,0-1.025,0-1.548,0c0,0.431,0,0.838,0,1.244c0.525,0,1.037,0,1.548,0 C11.454,26.567,11.454,26.159,11.454,25.747z"/><path fill="#8bb7f0" d="M34.94,25.795c-0.097-0.962-0.351-1.874-0.838-2.72c-0.093-0.161-0.318-0.296-0.454-0.358 c-0.086-0.039-0.867-0.061-1.142-0.073c-0.355-0.017-0.71-0.032-1.078-0.05c0-0.533-0.008-1.041,0.005-1.548 c0.004-0.158-0.05-0.233-0.19-0.274c-0.614-0.182-1.224-0.379-1.843-0.544c-0.356-0.095-0.837-0.159-1.21-0.227 c0-0.18,0-0.344,0-0.509c0-0.588,0.001-0.585,0.563-0.781c0.975-0.339,2.126-0.666,2.953-1.313c0.925-0.724,1.589-1.637,1.98-2.742 c0.355-0.998,0.386-2.036,0.311-3.08c-0.058-0.801-0.24-1.575-0.617-2.291c-0.295-0.56-0.719-1.013-1.259-1.342 c-1.146-0.696-2.483-0.893-3.799-0.82c-0.384,0.021-0.769,0.047-1.159,0.071c-0.007-0.131-0.014-0.237-0.021-0.35 c-0.514,0.064-1.005,0.126-1.503,0.188c0-0.463,0-0.888,0-1.325c0.506-0.075,1.005-0.15,1.505-0.224c0-0.59,0-1.157,0-1.717 c-1.82,0.254-3.632,0.506-5.459,0.761c0,1.085,0,2.168,0,3.289c-1.143,0.051-2.273,0.102-3.416,0.154c0-0.454,0-0.876,0-1.313 c0.491-0.028,0.972-0.055,1.446-0.082c0-0.649,0-1.264,0-1.852c-1.969,0.108-3.917,0.216-5.887,0.325c0,1.052,0,2.095,0,3.161 c-1.319,0-2.615,0-3.924,0c0,0.541,0,1.06,0,1.619c0.516,0,1.019,0,1.526,0c0,0.446,0,0.853,0,1.252c-0.522,0-1.026,0-1.523,0 c0,0.532,0,1.052,0,1.594c0.656,0,1.295,0,1.964,0c0,1.715,0,3.408,0,5.121c0.519,0,1.009,0,1.5,0c0,0.42,0,0.818,0,1.239 c-0.506,0-0.996,0-1.495,0c0,0.655,0,1.286,0,1.947c0.507,0,1.002,0,1.502,0c0,0.422,0,0.816,0,1.24c-0.505,0-1,0-1.522,0 c0,1.716,0,3.403,0,5.111c-0.666,0-1.306,0-1.949,0c0,1.089,0,2.154,0,3.221c0.506,0,0.996,0,1.515,0c0,0.41,0,0.808,0,1.238 c0.818,0,1.608,0,2.423,0c0,1.083,0,2.133,0,3.175c1.33,0.059,2.632,0.116,3.967,0.175c0-0.411,0-0.809,0-1.223 c0.521,0.045,1.009,0.088,1.523,0.132c0-0.684,0-1.346,0-2.034c0.798,0.061,1.57,0.12,2.361,0.18c0,1.111,0,2.2,0,3.273 c1.829,0.254,3.636,0.506,5.462,0.761c0-1.142,0-2.276,0-3.432c0.327,0.023,0.617,0.044,0.907,0.064 c1.002,0.07,2.126,0.071,3.107-0.192c1.81-0.485,3.04-1.561,3.535-3.408C35.014,28.124,35.057,26.964,34.94,25.795z M31.445,9.941 c0.483-0.071,0.972-0.143,1.49-0.219c0,0.501,0,0.984,0,1.494c-0.489,0.06-0.981,0.121-1.49,0.183 C31.445,10.911,31.445,10.439,31.445,9.941z M31.439,13.671c0.497-0.046,0.984-0.093,1.49-0.14c0,0.495,0,0.982,0,1.496 c-0.488,0.032-0.982,0.065-1.49,0.099C31.439,14.621,31.439,14.153,31.439,13.671z M15.832,9.69c0.519-0.026,1.021-0.05,1.536-0.074 c0,0.433,0,0.84,0,1.269c-0.514,0.023-1.017,0.046-1.536,0.069C15.832,10.53,15.832,10.122,15.832,9.69z M16.765,14.609 c0,0.401,0,0.8,0,1.217c-0.499,0-1.001,0-1.521,0c0-0.396,0-0.794,0-1.217C15.752,14.609,16.25,14.609,16.765,14.609z M13.879,9.748 c0.507,0,1.003,0,1.514,0c0,0.387,0,0.793,0,1.233c-0.505,0-1.001,0-1.514,0C13.879,10.597,13.879,10.19,13.879,9.748z M13.043,14.242c0-0.413,0-0.814,0-1.228c0.506,0,1.009,0,1.528,0c0,0.416,0,0.815,0,1.228 C14.051,14.242,13.553,14.242,13.043,14.242z M13.431,30.196c-0.508,0-1.01,0-1.526,0c0-0.392,0-0.799,0-1.231 c0.506,0,1.003,0,1.526,0C13.431,29.365,13.431,29.765,13.431,30.196z M15.006,26.985c-0.514,0-1.017,0-1.533,0c0-0.4,0-0.8,0-1.22 c0.506,0,1.008,0,1.533,0C15.006,26.17,15.006,26.57,15.006,26.985z M15.008,25.388c-0.511,0-1.014,0-1.532,0 c0-0.397,0-0.796,0-1.218c0.508,0,1.01,0,1.532,0C15.008,24.577,15.008,24.971,15.008,25.388z M15.056,19.38 c0.502,0,1.005,0,1.518,0c0,0.41,0,0.817,0,1.237c-0.501,0-0.997,0-1.518,0C15.056,20.202,15.056,19.801,15.056,19.38z M17.374,33.353c-0.509,0-1.018,0-1.538,0c0-0.412,0-0.805,0-1.218c0.509,0,1.017,0,1.538,0 C17.374,32.538,17.374,32.939,17.374,33.353z M18.949,11.926c0.13-0.008,4.26-0.214,4.757-0.227 c3.221-0.082,3.134,1.304,3.157,2.313c0.042,1.851-0.728,3.517-4.602,3.817c-0.131,0.01-3.269,0.141-3.314,0.141 C18.949,15.949,18.949,13.946,18.949,11.926z M21.345,30.381c-0.254-0.012-1.262-0.059-1.519-0.07c0-0.416,0-0.829,0-1.221 c0.502,0,1.005,0,1.519,0C21.345,29.537,21.345,29.945,21.345,30.381z M25.264,30.661c-0.376-0.029-1.389-0.108-1.518-0.118 c0-0.426,0-0.846,0-1.292c0.386,0.027,0.761,0.053,1.139,0.079c0.126,0.009,0.252,0.017,0.379,0.026 C25.264,29.792,25.264,30.213,25.264,30.661z M27.384,26.635c-0.093,0.353-0.357,1.674-3.466,1.67 c-0.761-0.001-4.858-0.179-4.969-0.179c0-2.04,0-4.027,0-6.045c0.097,0,2.61,0.059,3.069,0.083c4.846,0.258,4.962,1.193,5.454,2.934 C27.613,25.598,27.518,26.13,27.384,26.635z M32.934,28.37c-0.499-0.058-0.986-0.115-1.489-0.173c0-0.479,0-0.953,0-1.461 c0.489,0.047,0.981,0.094,1.489,0.143C32.934,27.388,32.934,27.87,32.934,28.37z"/></svg>